<svg xmlns="http://www.w3.org/2000/svg" viewBox="0 0 300 600"><defs><style>.cls-1{fill:#752dd2;}.cls-2{font-size:24px;}.cls-2,.cls-35{fill:#f3f0f7;}.cls-2,.cls-27,.cls-36{font-family:Montserrat-Bold, Montserrat;font-weight:700;}.cls-3{letter-spacing:-0.01em;}.cls-4{letter-spacing:-0.01em;}.cls-5{font-size:14px;fill:#000;}.cls-6{letter-spacing:0.01em;}.cls-7{letter-spacing:-0.02em;}.cls-8{letter-spacing:0.01em;}.cls-27,.cls-9{font-size:18px;}.cls-9{fill:#f8f3ff;}.cls-28,.cls-29,.cls-30,.cls-31,.cls-9{font-family:Montserrat-Medium, Montserrat;font-weight:500;}.cls-10{letter-spacing:-0.02em;}.cls-11{letter-spacing:-0.01em;}.cls-12{letter-spacing:-0.04em;}.cls-13{letter-spacing:0em;}.cls-14,.cls-31{letter-spacing:0em;}.cls-15{letter-spacing:0em;}.cls-16{letter-spacing:-0.01em;}.cls-17,.cls-29{letter-spacing:-0.02em;}.cls-18,.cls-30{letter-spacing:-0.01em;}.cls-19{letter-spacing:0em;}.cls-20{letter-spacing:-0.02em;}.cls-21{letter-spacing:-0.01em;}.cls-22{letter-spacing:-0.01em;}.cls-23{letter-spacing:-0.02em;}.cls-24{letter-spacing:0.01em;}.cls-25{letter-spacing:-0.01em;}.cls-26{fill:#fbf8ff;stroke:#000;stroke-miterlimit:10;stroke-width:2px;}.cls-32{letter-spacing:-0.06em;}.cls-33{letter-spacing:-0.01em;}.cls-34{letter-spacing:-0.01em;}.cls-36{font-size:36px;}</style></defs><title>storie3plugins</title><g id="Camada_2" data-name="Camada 2"><g id="icons-stories"><rect class="cls-1" width="300" height="600"/><text class="cls-2" transform="translate(93.56 85.95)"><tspan class="cls-3">P</tspan><tspan class="cls-4" x="17.33" y="0">L</tspan><tspan x="31.61" y="0">UGINS</tspan><tspan class="cls-5"><tspan x="-44.4" y="16.8">Seus instru</tspan><tspan class="cls-6" x="37.44" y="16.8">m</tspan><tspan x="52.21" y="16.8">en</tspan><tspan class="cls-7" x="70.72" y="16.8">t</tspan><tspan x="76.57" y="16.8">os vi</tspan><tspan class="cls-8" x="109.72" y="16.8">r</tspan><tspan x="115.97" y="16.8">tuais!</tspan></tspan></text><rect x="27" y="115" width="244" height="337" rx="12"/><text class="cls-9" transform="translate(44.07 141.28)"><tspan class="cls-10">C</tspan><tspan x="12.62" y="0">om a </tspan><tspan class="cls-11" x="63.52" y="0">D</tspan><tspan class="cls-12" x="78.21" y="0">A</tspan><tspan class="cls-13" x="90.72" y="0">W instal</tspan><tspan class="cls-14" x="165.36" y="0">a</tspan><tspan x="176.18" y="0">da e </tspan><tspan x="5.15" y="21.6">o DRUM KIT </tspan><tspan class="cls-15" x="119.57" y="21.6">p</tspan><tspan x="131.76" y="21.6">a</tspan><tspan class="cls-16" x="142.52" y="21.6">r</tspan><tspan x="149.76" y="21.6">a </tspan><tspan class="cls-11" x="165.36" y="21.6">f</tspan><tspan x="171.54" y="21.6">a</tspan><tspan class="cls-16" x="182.3" y="21.6">z</tspan><tspan x="191.54" y="21.6">er </tspan><tspan x="13.27" y="43.2">a </tspan><tspan class="cls-15" x="28.87" y="43.2">b</tspan><tspan x="41.06" y="43.2">a</tspan><tspan class="cls-17" x="51.82" y="43.2">t</tspan><tspan x="58.95" y="43.2">e</tspan><tspan class="cls-18" x="69.97" y="43.2">r</tspan><tspan x="77.22" y="43.2">ia, </tspan><tspan class="cls-19" x="101.93" y="43.2">a</tspan><tspan x="112.75" y="43.2">go</tspan><tspan class="cls-16" x="136.6" y="43.2">r</tspan><tspan x="143.84" y="43.2">a </tspan><tspan class="cls-20" x="159.44" y="43.2">v</tspan><tspan x="169.23" y="43.2">o</tspan><tspan class="cls-16" x="180.66" y="43.2">c</tspan><tspan x="190.8" y="43.2">ê </tspan><tspan x="55.99" y="64.8">p</tspan><tspan class="cls-21" x="68.26" y="64.8">r</tspan><tspan x="75.43" y="64.8">ecisa dos </tspan><tspan x="23.02" y="86.4">instru</tspan><tspan class="cls-14" x="76.34" y="86.4">m</tspan><tspan x="95.42" y="86.4">en</tspan><tspan class="cls-17" x="118.69" y="86.4">t</tspan><tspan x="125.82" y="86.4">os </tspan><tspan class="cls-15" x="151.11" y="86.4">p</tspan><tspan x="163.29" y="86.4">a</tspan><tspan class="cls-16" x="174.06" y="86.4">r</tspan><tspan x="181.29" y="86.4">a </tspan><tspan x="4.41" y="108">ha</tspan><tspan class="cls-18" x="27.43" y="108">r</tspan><tspan class="cls-19" x="34.69" y="108">m</tspan><tspan x="53.77" y="108">onias, </tspan><tspan class="cls-14" x="111.18" y="108">m</tspan><tspan x="130.26" y="108">elodias e </tspan><tspan x="68.21" y="129.6">a</tspan><tspan class="cls-18" x="78.97" y="129.6">r</tspan><tspan class="cls-22" x="86.23" y="129.6">r</tspan><tspan x="93.46" y="129.6">anjos!</tspan><tspan class="cls-23" x="6.53" y="172.8">P</tspan><tspan class="cls-21" x="19.19" y="172.8">r</tspan><tspan x="26.35" y="172.8">e</tspan><tspan class="cls-15" x="37.37" y="172.8">p</tspan><tspan x="49.55" y="172.8">a</tspan><tspan class="cls-16" x="60.32" y="172.8">r</tspan><tspan x="67.55" y="172.8">a</tspan><tspan class="cls-14" x="78.32" y="172.8">m</tspan><tspan x="97.4" y="172.8">os um vídeo </tspan><tspan class="cls-14" x="29.12" y="194.4">n</tspan><tspan x="41.44" y="194.4">o </tspan><tspan class="cls-20" x="57.71" y="194.4">y</tspan><tspan x="67.5" y="194.4">outube e um </tspan><tspan class="cls-24" x="52.67" y="216">e</tspan><tspan x="63.86" y="216">-book </tspan><tspan class="cls-22" x="121.82" y="216">c</tspan><tspan x="131.96" y="216">om </tspan><tspan x="16.7" y="237.6">ap</tspan><tspan class="cls-21" x="39.74" y="237.6">r</tspan><tspan x="46.91" y="237.6">esenta</tspan><tspan class="cls-14" x="108.43" y="237.6">n</tspan><tspan x="120.74" y="237.6">do esses </tspan><tspan x="49.53" y="259.2">plugins </tspan><tspan class="cls-20" x="122.57" y="259.2">V</tspan><tspan class="cls-11" x="135.12" y="259.2">S</tspan><tspan class="cls-25" x="146.11" y="259.2">T</tspan><tspan x="156.45" y="259.2">i.</tspan></text><rect x="27" y="475" width="34" height="34"/><rect class="cls-26" x="30" y="470" width="34" height="34"/><text class="cls-27" transform="translate(77.36 481.86)"><tspan class="cls-15">A</tspan><tspan x="13.7" y="0">ssista</tspan><tspan class="cls-28" x="66.72" y="0" xml:space="preserve"> o tu</tspan><tspan class="cls-29" x="107.48" y="0">t</tspan><tspan class="cls-28" x="114.6" y="0">o</tspan><tspan class="cls-30" x="126.03" y="0">r</tspan><tspan class="cls-28" x="133.29" y="0">ial </tspan><tspan class="cls-31" x="158.94" y="0">n</tspan><tspan class="cls-28" x="171.25" y="0">o </tspan><tspan class="cls-28"><tspan class="cls-32" x="0" y="21.6">Y</tspan><tspan x="10.57" y="21.6">outube </tspan><tspan class="cls-15" x="81.95" y="21.6">p</tspan><tspan x="94.14" y="21.6">a</tspan><tspan class="cls-22" x="104.9" y="21.6">r</tspan><tspan x="112.14" y="21.6">a usar</tspan></tspan></text><rect x="27" y="527" width="34" height="34"/><rect class="cls-26" x="30" y="522" width="34" height="34"/><text class="cls-27" transform="translate(77.36 545.86)"><tspan class="cls-11">P</tspan><tspan class="cls-33" x="13" y="0">r</tspan><tspan x="20.59" y="0">e</tspan><tspan class="cls-34" x="31.95" y="0">p</tspan><tspan x="44.21" y="0">a</tspan><tspan class="cls-34" x="55.31" y="0">r</tspan><tspan class="cls-24" x="62.91" y="0">e</tspan><tspan x="74.45" y="0">-se!</tspan></text><circle class="cls-35" cx="148.5" cy="35.5" r="20.5"/><text class="cls-36" transform="translate(137.58 48.39)">3</text></g></g></svg>