<svg xmlns="http://www.w3.org/2000/svg" viewBox="0 0 300 600"><defs><style>.cls-1{fill:#752dd2;}.cls-2{font-size:24px;}.cls-2,.cls-32{fill:#f3f0f7;}.cls-2,.cls-24,.cls-33{font-family:Montserrat-Bold, Montserrat;font-weight:700;}.cls-3{font-size:14px;fill:#000;}.cls-4{letter-spacing:-0.01em;}.cls-5{letter-spacing:0.01em;}.cls-6{letter-spacing:0.01em;}.cls-24,.cls-7{font-size:18px;}.cls-7{fill:#f8f3ff;}.cls-25,.cls-26,.cls-29,.cls-30,.cls-7{font-family:Montserrat-Medium, Montserrat;font-weight:500;}.cls-29,.cls-8{letter-spacing:-0.02em;}.cls-9{letter-spacing:-0.01em;}.cls-10,.cls-26{letter-spacing:0em;}.cls-11{letter-spacing:-0.02em;}.cls-12{letter-spacing:0em;}.cls-13{letter-spacing:-0.02em;}.cls-14{letter-spacing:0em;}.cls-15{letter-spacing:-0.01em;}.cls-16{letter-spacing:-0.01em;}.cls-17{letter-spacing:0em;}.cls-18{letter-spacing:-0.01em;}.cls-19{letter-spacing:-0.05em;}.cls-20{letter-spacing:-0.01em;}.cls-21{letter-spacing:-0.03em;}.cls-22{letter-spacing:0.03em;}.cls-23{fill:#fbf8ff;stroke:#000;stroke-miterlimit:10;stroke-width:2px;}.cls-27,.cls-30{letter-spacing:-0.01em;}.cls-28{letter-spacing:0em;}.cls-31{letter-spacing:-0.06em;}.cls-33{font-size:36px;}</style></defs><title>storie2drum</title><g id="Camada_2" data-name="Camada 2"><g id="icons-stories"><rect class="cls-1" width="300" height="600"/><text class="cls-2" transform="translate(86.08 85.95)">DRUM KIT<tspan class="cls-3"><tspan x="-25.46" y="16.8">No iníci</tspan><tspan class="cls-4" x="29.57" y="16.8">o</tspan><tspan x="38.64" y="16.8">, </tspan><tspan class="cls-5" x="46.27" y="16.8">m</tspan><tspan x="61.04" y="16.8">e</tspan><tspan class="cls-6" x="69.88" y="16.8">n</tspan><tspan x="79.63" y="16.8">os é mais!</tspan></tspan></text><rect x="27" y="115" width="244" height="337" rx="12"/><text class="cls-7" transform="translate(49.13 141.28)">Bai<tspan class="cls-8" x="29.41" y="0">x</tspan><tspan x="39.02" y="0">e g</tspan><tspan class="cls-9" x="67.3" y="0">r</tspan><tspan x="74.54" y="0">atuita</tspan><tspan class="cls-10" x="128.18" y="0">m</tspan><tspan x="147.25" y="0">en</tspan><tspan class="cls-8" x="170.53" y="0">t</tspan><tspan x="177.66" y="0">e o </tspan><tspan x="1.62" y="21.6">DRUM KIT ESSENCIAL </tspan><tspan x="16.15" y="43.2">do </tspan><tspan class="cls-11" x="44.7" y="43.2">C</tspan><tspan x="57.41" y="43.2">u</tspan><tspan class="cls-12" x="69.6" y="43.2">r</tspan><tspan x="76.92" y="43.2">so de B</tspan><tspan class="cls-13" x="143.97" y="43.2">e</tspan><tspan x="154.72" y="43.2">at e </tspan><tspan class="cls-9" x="10.52" y="64.8">c</tspan><tspan x="20.65" y="64.8">o</tspan><tspan class="cls-10" x="32.08" y="64.8">m</tspan><tspan class="cls-14" x="51.16" y="64.8">e</tspan><tspan class="cls-9" x="62.18" y="64.8">c</tspan><tspan x="72.31" y="64.8">e a </tspan><tspan class="cls-15" x="103.78" y="64.8">f</tspan><tspan x="109.95" y="64.8">a</tspan><tspan class="cls-16" x="120.71" y="64.8">z</tspan><tspan x="129.95" y="64.8">er seus </tspan><tspan x="15.82" y="86.4">b</tspan><tspan class="cls-13" x="28.1" y="86.4">e</tspan><tspan x="38.84" y="86.4">ats </tspan><tspan class="cls-10" x="70.92" y="86.4">h</tspan><tspan x="83.23" y="86.4">oje </tspan><tspan class="cls-17" x="115.63" y="86.4">m</tspan><tspan x="134.71" y="86.4">es</tspan><tspan class="cls-10" x="154.74" y="86.4">m</tspan><tspan class="cls-18" x="173.82" y="86.4">o</tspan><tspan x="185.04" y="86.4">.</tspan><tspan x="29.92" y="129.6">É 100% g</tspan><tspan class="cls-9" x="109.93" y="129.6">r</tspan><tspan x="117.17" y="129.6">atui</tspan><tspan class="cls-8" x="152.59" y="129.6">t</tspan><tspan class="cls-18" x="159.72" y="129.6">o</tspan><tspan x="170.93" y="129.6">.</tspan><tspan class="cls-19" x="11.5" y="172.8">T</tspan><tspan x="21.08" y="172.8">e</tspan><tspan class="cls-10" x="32.09" y="172.8">m</tspan><tspan x="51.17" y="172.8">os out</tspan><tspan class="cls-18" x="107.53" y="172.8">r</tspan><tspan x="114.69" y="172.8">os Drum </tspan><tspan class="cls-20" x="-3.41" y="194.4">K</tspan><tspan x="9.35" y="194.4">its </tspan><tspan class="cls-10" x="35.68" y="194.4">n</tspan><tspan x="48" y="194.4">o </tspan><tspan class="cls-11" x="64.27" y="194.4">C</tspan><tspan x="76.98" y="194.4">u</tspan><tspan class="cls-12" x="89.16" y="194.4">r</tspan><tspan x="96.49" y="194.4">so de B</tspan><tspan class="cls-13" x="163.54" y="194.4">e</tspan><tspan x="174.28" y="194.4">at e </tspan><tspan x="11.28" y="216">utiliza</tspan><tspan class="cls-10" x="66.12" y="216">m</tspan><tspan x="85.2" y="216">os </tspan><tspan class="cls-21" x="110.49" y="216">T</tspan><tspan x="120.43" y="216">AMBÉM </tspan><tspan x="25.93" y="237.6">esse ESSENCIA</tspan><tspan class="cls-22" x="163.7" y="237.6">L</tspan><tspan x="174.93" y="237.6">.</tspan></text><rect x="27" y="475" width="34" height="34"/><rect class="cls-23" x="30" y="470" width="34" height="34"/><text class="cls-24" transform="translate(77.36 481.86)">Bai<tspan class="cls-11" x="30.29" y="0">x</tspan><tspan x="40.7" y="0">e </tspan><tspan class="cls-25" x="57.15" y="0">o </tspan><tspan class="cls-26" x="73.42" y="0">n</tspan><tspan class="cls-25" x="85.73" y="0">osso Drum </tspan><tspan class="cls-25"><tspan class="cls-20" x="0" y="21.6">K</tspan><tspan x="12.76" y="21.6">it </tspan><tspan class="cls-27" x="30.08" y="21.6">E</tspan><tspan x="42.01" y="21.6">sse</tspan><tspan class="cls-10" x="71.06" y="21.6">n</tspan><tspan x="83.38" y="21.6">cial</tspan></tspan></text><rect x="27" y="527" width="34" height="34"/><rect class="cls-23" x="30" y="522" width="34" height="34"/><text class="cls-24" transform="translate(77.36 533.86)"><tspan class="cls-28">A</tspan><tspan x="13.7" y="0">ssista</tspan><tspan class="cls-25" x="66.72" y="0" xml:space="preserve"> o tu</tspan><tspan class="cls-29" x="107.48" y="0">t</tspan><tspan class="cls-25" x="114.6" y="0">o</tspan><tspan class="cls-30" x="126.03" y="0">r</tspan><tspan class="cls-25" x="133.29" y="0">ial </tspan><tspan class="cls-26" x="158.94" y="0">n</tspan><tspan class="cls-25" x="171.25" y="0">o </tspan><tspan class="cls-25"><tspan class="cls-31" x="0" y="21.6">Y</tspan><tspan x="10.57" y="21.6">outube </tspan><tspan class="cls-28" x="81.95" y="21.6">p</tspan><tspan x="94.14" y="21.6">a</tspan><tspan class="cls-16" x="104.9" y="21.6">r</tspan><tspan x="112.14" y="21.6">a usar</tspan></tspan></text><circle class="cls-32" cx="148.5" cy="35.5" r="20.5"/><text class="cls-33" transform="translate(137.61 48.39)">2</text></g></g></svg>