<svg xmlns="http://www.w3.org/2000/svg" viewBox="0 0 300 600"><defs><style>.cls-1{fill:#752dd2;}.cls-2{font-size:24px;}.cls-2,.cls-34{fill:#f3f0f7;}.cls-2,.cls-31{font-family:Montserrat-Bold, Montserrat;font-weight:700;}.cls-3{letter-spacing:-0.01em;}.cls-4{letter-spacing:-0.03em;}.cls-5{font-size:14px;fill:#000;}.cls-6{letter-spacing:-0.01em;}.cls-7{letter-spacing:0.01em;}.cls-31,.cls-8{font-size:18px;}.cls-8{fill:#f8f3ff;font-family:Montserrat-Medium, Montserrat;font-weight:500;}.cls-9{letter-spacing:-0.01em;}.cls-10{font-family:Montserrat-LightItalic, Montserrat;font-weight:300;font-style:italic;}.cls-11{letter-spacing:0.03em;}.cls-12{letter-spacing:-0.06em;}.cls-13{letter-spacing:0em;}.cls-14{letter-spacing:0em;}.cls-15{letter-spacing:-0.01em;}.cls-16{letter-spacing:-0.02em;}.cls-17{letter-spacing:-0.01em;}.cls-18{letter-spacing:-0.02em;}.cls-19{letter-spacing:-0.01em;}.cls-20{letter-spacing:0.03em;}.cls-21{letter-spacing:-0.01em;}.cls-22{letter-spacing:0em;}.cls-23{letter-spacing:-0.01em;}.cls-24{letter-spacing:0em;}.cls-25{letter-spacing:-0.01em;}.cls-26{letter-spacing:-0.01em;}.cls-27{letter-spacing:-0.02em;}.cls-28{letter-spacing:-0.02em;}.cls-29{letter-spacing:-0.02em;}.cls-30{fill:#fbf8ff;stroke:#000;stroke-miterlimit:10;stroke-width:2px;}.cls-32{letter-spacing:0.01em;}.cls-33{letter-spacing:-0.01em;}</style></defs><title>storie4curso</title><g id="Camada_2" data-name="Camada 2"><g id="icons-stories"><rect class="cls-1" width="300" height="600"/><text class="cls-2" transform="translate(46.4 85.95)"><tspan class="cls-3">C</tspan><tspan x="17.45" y="0">URSO DE BE</tspan><tspan class="cls-4" x="173.54" y="0">A</tspan><tspan x="191.09" y="0">T</tspan><tspan class="cls-5"><tspan x="34.53" y="16.8">Um g</tspan><tspan class="cls-6" x="74.01" y="16.8">r</tspan><tspan x="79.95" y="16.8">a</tspan><tspan class="cls-7" x="88.59" y="16.8">n</tspan><tspan x="98.35" y="16.8">de atal</tspan><tspan class="cls-7" x="148.41" y="16.8">h</tspan><tspan x="158.17" y="16.8">o!</tspan></tspan></text><rect x="27" y="115" width="244" height="337" rx="12"/><text class="cls-8" transform="translate(78.38 141.28)"><tspan class="cls-9">F</tspan><tspan x="11.25" y="0">ilipe Ret canta:</tspan><tspan class="cls-10"><tspan class="cls-11" x="-26.86" y="21.6">“</tspan><tspan class="cls-12" x="-19.99" y="21.6">T</tspan><tspan x="-10.84" y="21.6">er a </tspan><tspan class="cls-13" x="28.41" y="21.6">m</tspan><tspan x="47.58" y="21.6">el</tspan><tspan class="cls-14" x="63.04" y="21.6">h</tspan><tspan x="75.18" y="21.6">or </tspan><tspan class="cls-15" x="98.05" y="21.6">c</tspan><tspan x="107.88" y="21.6">hu</tspan><tspan class="cls-16" x="132.04" y="21.6">t</tspan><tspan x="138.86" y="21.6">ei</tspan><tspan class="cls-17" x="154.32" y="21.6">r</tspan><tspan x="161.16" y="21.6">a </tspan><tspan class="cls-14" x="-14.1" y="43.2">n</tspan><tspan x="-1.97" y="43.2">ão </tspan><tspan class="cls-18" x="25.97" y="43.2">t</tspan><tspan x="32.79" y="43.2">e </tspan><tspan class="cls-19" x="48.18" y="43.2">f</tspan><tspan x="53.92" y="43.2">az o </tspan><tspan class="cls-13" x="95.53" y="43.2">m</tspan><tspan x="114.7" y="43.2">el</tspan><tspan class="cls-13" x="130.17" y="43.2">h</tspan><tspan x="142.3" y="43.2">or </tspan><tspan x="34.38" y="64.8">jogado</tspan><tspan class="cls-20" x="98.06" y="64.8">r</tspan><tspan x="105.71" y="64.8">”</tspan></tspan><tspan x="-7.37" y="108">Ap</tspan><tspan class="cls-21" x="18.08" y="108">r</tspan><tspan x="25.24" y="108">e</tspan><tspan class="cls-22" x="36.26" y="108">n</tspan><tspan x="48.57" y="108">da </tspan><tspan class="cls-23" x="76.45" y="108">c</tspan><tspan x="86.59" y="108">o</tspan><tspan class="cls-24" x="98.02" y="108">m</tspan><tspan x="117.1" y="108">o os </tspan><tspan x="-27.57" y="129.6">p</tspan><tspan class="cls-21" x="-15.29" y="129.6">r</tspan><tspan x="-8.13" y="129.6">ofissionais </tspan><tspan class="cls-25" x="92.51" y="129.6">f</tspan><tspan x="98.68" y="129.6">a</tspan><tspan class="cls-26" x="109.45" y="129.6">z</tspan><tspan x="118.68" y="129.6">em os </tspan><tspan x="-20.19" y="151.2">seus b</tspan><tspan class="cls-27" x="38.17" y="151.2">e</tspan><tspan x="48.92" y="151.2">ats e g</tspan><tspan class="cls-23" x="109.27" y="151.2">r</tspan><tspan class="cls-9" x="116.5" y="151.2">a</tspan><tspan class="cls-28" x="127.09" y="151.2">v</tspan><tspan x="136.84" y="151.2">am </tspan><tspan x="-23.87" y="172.8">em casa </tspan><tspan class="cls-23" x="56.68" y="172.8">c</tspan><tspan x="66.81" y="172.8">om plugins </tspan><tspan x="-24.28" y="194.4">g</tspan><tspan class="cls-23" x="-11.86" y="194.4">r</tspan><tspan x="-4.63" y="194.4">atui</tspan><tspan class="cls-29" x="30.8" y="194.4">t</tspan><tspan x="37.93" y="194.4">os e qualid</tspan><tspan class="cls-22" x="136.62" y="194.4">a</tspan><tspan x="147.44" y="194.4">de </tspan><tspan x="28.05" y="216">de studio!</tspan></text><rect x="27" y="498" width="34" height="34"/><rect class="cls-30" x="30" y="493" width="34" height="34"/><text class="cls-31" transform="translate(77.36 516.86)"><tspan class="cls-16">C</tspan><tspan x="12.85" y="0">o</tspan><tspan class="cls-32" x="24.64" y="0">m</tspan><tspan x="43.63" y="0">e</tspan><tspan class="cls-33" x="54.99" y="0">c</tspan><tspan x="65.5" y="0">e </tspan><tspan class="cls-32" x="81.95" y="0">h</tspan><tspan x="94.5" y="0">oje!</tspan></text><circle class="cls-34" cx="148.5" cy="35.5" r="20.5"/><path d="M153.28,40.87a22.21,22.21,0,0,0,8-17,.79.79,0,0,0-.76-.76,22.17,22.17,0,0,0-17,8,9.4,9.4,0,0,0-9.06,9.17.77.77,0,0,0,1.42.41,7.65,7.65,0,0,1,.89-1.17,5.66,5.66,0,0,1,3-1.59.82.82,0,0,0,.2.33l6.13,6.13a.76.76,0,0,0,.32.19,5.64,5.64,0,0,1-1.58,3,12.36,12.36,0,0,1-1.17.89.76.76,0,0,0,.4,1.41,9.39,9.39,0,0,0,9.18-9.05Zm6.44-16.2a20.46,20.46,0,0,1-1.08,5.79l-4.72-4.71a19.85,19.85,0,0,1,5.8-1.08ZM136.48,37.76a7.71,7.71,0,0,1,1.81-2.82,7.84,7.84,0,0,1,4-2.14s-1.63,2.77-2,3.54a7.13,7.13,0,0,0-3.8,1.42ZM146.85,43l-5.42-5.42a20.61,20.61,0,0,1,10.94-11.19L158,32A20.61,20.61,0,0,1,146.85,43Zm1.2,1.16c1.07-.47,3.5-1.94,3.54-2a7.81,7.81,0,0,1-2.14,4,7.9,7.9,0,0,1-2.82,1.82,7.28,7.28,0,0,0,1.42-3.8Z"/><path d="M140,40a.77.77,0,0,0-1.08,0l-2.7,2.71a.76.76,0,0,0,1.07,1.08L140,41.12A.77.77,0,0,0,140,40Z"/><path d="M142.16,42.22a.76.76,0,0,0-.54-.22h0a.86.86,0,0,0-.37.1l-.16.13-5.41,5.41a.53.53,0,0,0-.11.14.76.76,0,0,0,1,1,.53.53,0,0,0,.14-.11l5.42-5.42a.48.48,0,0,0,.13-.16A.75.75,0,0,0,142.16,42.22Z"/><path d="M144.34,44.4a.77.77,0,0,0-1.08,0l-2.71,2.71a.77.77,0,0,0,0,1.08.78.78,0,0,0,1.08,0l2.71-2.71A.76.76,0,0,0,144.34,44.4Z"/></g></g></svg>