<svg xmlns="http://www.w3.org/2000/svg" viewBox="0 0 300 600"><defs><style>.cls-1{fill:#752dd2;}.cls-2{font-size:24px;}.cls-2,.cls-36{fill:#f3f0f7;}.cls-2,.cls-25,.cls-37{font-family:Montserrat-Bold, Montserrat;font-weight:700;}.cls-3{letter-spacing:-0.01em;}.cls-4{letter-spacing:-0.04em;}.cls-5{font-size:14px;fill:#000;}.cls-6{letter-spacing:-0.01em;}.cls-7{letter-spacing:-0.05em;}.cls-8{letter-spacing:0em;}.cls-9{letter-spacing:-0.02em;}.cls-10,.cls-25{font-size:18px;}.cls-10{fill:#f8f3ff;}.cls-10,.cls-27,.cls-28,.cls-34{font-family:Montserrat-Medium, Montserrat;font-weight:500;}.cls-11,.cls-32{letter-spacing:-0.01em;}.cls-12{letter-spacing:-0.02em;}.cls-13,.cls-29{letter-spacing:-0.01em;}.cls-14,.cls-30{letter-spacing:-0.02em;}.cls-15,.cls-34{letter-spacing:-0.01em;}.cls-16{letter-spacing:0em;}.cls-17{letter-spacing:0em;}.cls-18{letter-spacing:0em;}.cls-19{letter-spacing:0em;}.cls-20{letter-spacing:-0.04em;}.cls-21{letter-spacing:0em;}.cls-22{letter-spacing:0em;}.cls-23,.cls-29,.cls-30,.cls-31,.cls-32,.cls-33{fill:#fbf8ff;}.cls-23{stroke:#000;}.cls-23,.cls-24{stroke-miterlimit:10;stroke-width:2px;}.cls-24{fill:none;stroke:#521fa3;}.cls-26{letter-spacing:-0.01em;}.cls-28{letter-spacing:-0.02em;}.cls-33{letter-spacing:0.08em;}.cls-35{letter-spacing:-0.01em;}.cls-37{font-size:36px;}</style></defs><title>storie1daw</title><g id="Camada_2" data-name="Camada 2"><g id="icons-stories"><rect class="cls-1" width="300" height="600"/><text class="cls-2" transform="translate(116.87 85.95)"><tspan class="cls-3">D</tspan><tspan class="cls-4" x="19.58" y="0">A</tspan><tspan x="37.06" y="0">W</tspan><tspan class="cls-5"><tspan x="-62.96" y="16.8">Digital </tspan><tspan class="cls-6" x="-10.27" y="16.8">A</tspan><tspan x="0.32" y="16.8">udio </tspan><tspan class="cls-7" x="36.97" y="16.8">W</tspan><tspan x="52.48" y="16.8">o</tspan><tspan class="cls-8" x="61.65" y="16.8">r</tspan><tspan class="cls-9" x="67.63" y="16.8">k</tspan><tspan x="76.62" y="16.8">station</tspan></tspan></text><rect x="27" y="115" width="244" height="337" rx="12"/><text class="cls-10" transform="translate(51.81 141.28)">É o sof<tspan class="cls-11" x="59.98" y="0">t</tspan><tspan class="cls-12" x="67.25" y="0">w</tspan><tspan x="83.12" y="0">a</tspan><tspan class="cls-13" x="93.89" y="0">r</tspan><tspan x="101.05" y="0">e que </tspan><tspan class="cls-14" x="157.23" y="0">v</tspan><tspan x="167.02" y="0">o</tspan><tspan class="cls-15" x="178.45" y="0">c</tspan><tspan x="188.58" y="0">ê </tspan><tspan x="36.83" y="21.6">instala </tspan><tspan class="cls-16" x="101.97" y="21.6">n</tspan><tspan x="114.28" y="21.6">o seu </tspan><tspan class="cls-15" x="19.7" y="43.2">c</tspan><tspan x="29.83" y="43.2">omput</tspan><tspan class="cls-17" x="92.2" y="43.2">a</tspan><tspan class="cls-18" x="103.02" y="43.2">dor </tspan><tspan class="cls-19" x="138.95" y="43.2">p</tspan><tspan x="151.13" y="43.2">a</tspan><tspan class="cls-15" x="161.9" y="43.2">r</tspan><tspan x="169.13" y="43.2">a </tspan><tspan x="12.65" y="64.8">g</tspan><tspan class="cls-15" x="25.07" y="64.8">r</tspan><tspan class="cls-11" x="32.3" y="64.8">a</tspan><tspan class="cls-12" x="42.89" y="64.8">v</tspan><tspan x="52.64" y="64.8">ar e </tspan><tspan class="cls-11" x="91.48" y="64.8">f</tspan><tspan x="97.66" y="64.8">a</tspan><tspan class="cls-15" x="108.42" y="64.8">z</tspan><tspan x="117.66" y="64.8">er b</tspan><tspan class="cls-14" x="153.17" y="64.8">e</tspan><tspan x="163.92" y="64.8">at!</tspan><tspan x="42.72" y="108">A </tspan><tspan class="cls-11" x="60.74" y="108">D</tspan><tspan class="cls-20" x="75.43" y="108">A</tspan><tspan x="87.94" y="108">W mais </tspan><tspan x="32.8" y="129.6">pe</tspan><tspan class="cls-21" x="56.09" y="129.6">r</tspan><tspan x="63.41" y="129.6">sonaliz</tspan><tspan class="cls-6" x="126.31" y="129.6">á</tspan><tspan class="cls-14" x="136.89" y="129.6">v</tspan><tspan x="146.68" y="129.6">el, </tspan><tspan class="cls-15" x="1.45" y="151.2">c</tspan><tspan x="11.58" y="151.2">ompleta, l</tspan><tspan class="cls-11" x="102.52" y="151.2">e</tspan><tspan class="cls-14" x="113.35" y="151.2">v</tspan><tspan x="123.15" y="151.2">e, us</tspan><tspan class="cls-16" x="164.29" y="151.2">a</tspan><tspan x="175.11" y="151.2">da </tspan><tspan x="49.16" y="172.8">em studios </tspan><tspan x="-5.15" y="194.4">p</tspan><tspan class="cls-13" x="7.13" y="194.4">r</tspan><tspan x="14.29" y="194.4">ofissionais e além de </tspan><tspan x="18.9" y="216">tudo g</tspan><tspan class="cls-15" x="79.5" y="216">r</tspan><tspan x="86.74" y="216">atuita que </tspan><tspan x="-1.81" y="237.6">qualquer pess</tspan><tspan class="cls-22" x="127.47" y="237.6">o</tspan><tspan x="138.81" y="237.6">a pode </tspan><tspan class="cls-22" x="25.78" y="259.2">b</tspan><tspan x="37.96" y="259.2">ai</tspan><tspan class="cls-11" x="53.75" y="259.2">x</tspan><tspan x="63.5" y="259.2">ar e usar é o </tspan><tspan x="59.62" y="280.8">REA</tspan><tspan class="cls-11" x="97.94" y="280.8">P</tspan><tspan x="110.75" y="280.8">ER.</tspan></text><rect x="27" y="475" width="34" height="34"/><rect class="cls-23" x="30" y="470" width="34" height="34"/><line class="cls-24" x1="138" y1="506" x2="225" y2="506"/><text class="cls-25" transform="translate(77.36 481.86)"><tspan class="cls-22">A</tspan><tspan class="cls-26" x="13.7" y="0">c</tspan><tspan x="24.21" y="0">esse </tspan><tspan class="cls-27" x="71.13" y="0">o si</tspan><tspan class="cls-28" x="101.45" y="0">t</tspan><tspan class="cls-27" x="108.57" y="0">e da </tspan><tspan class="cls-27"><tspan class="cls-11" x="0" y="21.6">D</tspan><tspan class="cls-20" x="14.69" y="21.6">A</tspan><tspan x="27.2" y="21.6">W (</tspan><a href="https://www.reaper.fm/"><tspan class="cls-29" x="58.37" y="21.6">r</tspan><tspan class="cls-30" x="65.54" y="21.6">e</tspan><tspan class="cls-31" x="76.28" y="21.6">ape</tspan><tspan class="cls-32" x="110.34" y="21.6">r</tspan></a><tspan class="cls-31" x="117.54" y="21.6">.</tspan><tspan class="cls-33" x="121.63" y="21.6">f</tspan><tspan class="cls-31" x="129.42" y="21.6">m</tspan><tspan x="148.44" y="21.6">)</tspan></tspan></text><rect x="27" y="527" width="34" height="34"/><rect class="cls-23" x="30" y="522" width="34" height="34"/><text class="cls-25" transform="translate(77.36 533.86)">Instale <tspan class="cls-27" x="68.71" y="0">e </tspan><tspan class="cls-34" x="84.56" y="0">c</tspan><tspan class="cls-27" x="94.7" y="0">ontinue </tspan><tspan class="cls-27"><tspan class="cls-12" x="0" y="21.6">v</tspan><tspan x="9.76" y="21.6">á </tspan><tspan class="cls-22" x="25.36" y="21.6">p</tspan><tspan x="37.55" y="21.6">a</tspan><tspan class="cls-35" x="48.31" y="21.6">r</tspan><tspan x="55.55" y="21.6">a o DRUM KIT</tspan></tspan></text><circle class="cls-36" cx="148.5" cy="35.5" r="20.5"/><text class="cls-37" transform="translate(141.18 48.39)">1</text></g></g></svg>